<svg width="252" height="79" viewBox="0 0 252 79" fill="none" xmlns="http://www.w3.org/2000/svg">
<path d="M73.6989 42.0909V62H62.5852V15.4545H73.3352V33.5H73.7216C74.5095 31.3485 75.7973 29.6667 77.5852 28.4545C79.3883 27.2424 81.5928 26.6364 84.1989 26.6364C86.6534 26.6364 88.7898 27.1818 90.608 28.2727C92.4261 29.3485 93.8352 30.8712 94.8352 32.8409C95.8504 34.8106 96.3504 37.1136 96.3352 39.75V62H85.2216V41.9318C85.2367 39.9924 84.7519 38.4773 83.767 37.3864C82.7822 36.2955 81.3958 35.75 79.608 35.75C78.4413 35.75 77.411 36.0076 76.517 36.5227C75.6383 37.0227 74.9489 37.7424 74.4489 38.6818C73.964 39.6212 73.714 40.7576 73.6989 42.0909ZM113.114 62.5909C110.886 62.5909 108.909 62.2197 107.182 61.4773C105.47 60.7197 104.114 59.5833 103.114 58.0682C102.129 56.5379 101.636 54.6212 101.636 52.3182C101.636 50.3788 101.977 48.7424 102.659 47.4091C103.341 46.0758 104.28 44.9924 105.477 44.1591C106.674 43.3258 108.053 42.697 109.614 42.2727C111.174 41.8333 112.841 41.5379 114.614 41.3864C116.598 41.2045 118.197 41.0152 119.409 40.8182C120.621 40.6061 121.5 40.3106 122.045 39.9318C122.606 39.5379 122.886 38.9848 122.886 38.2727V38.1591C122.886 36.9924 122.485 36.0909 121.682 35.4545C120.879 34.8182 119.795 34.5 118.432 34.5C116.962 34.5 115.78 34.8182 114.886 35.4545C113.992 36.0909 113.424 36.9697 113.182 38.0909L102.932 37.7273C103.235 35.6061 104.015 33.7121 105.273 32.0455C106.545 30.3636 108.288 29.0455 110.5 28.0909C112.727 27.1212 115.402 26.6364 118.523 26.6364C120.75 26.6364 122.803 26.9015 124.682 27.4318C126.561 27.947 128.197 28.7045 129.591 29.7045C130.985 30.6894 132.061 31.9015 132.818 33.3409C133.591 34.7803 133.977 36.4242 133.977 38.2727V62H123.523V57.1364H123.25C122.629 58.3182 121.833 59.3182 120.864 60.1364C119.909 60.9545 118.78 61.5682 117.477 61.9773C116.189 62.3864 114.735 62.5909 113.114 62.5909ZM116.545 55.3182C117.742 55.3182 118.818 55.0758 119.773 54.5909C120.742 54.1061 121.515 53.4394 122.091 52.5909C122.667 51.7273 122.955 50.7273 122.955 49.5909V46.2727C122.636 46.4394 122.25 46.5909 121.795 46.7273C121.356 46.8636 120.871 46.9924 120.341 47.1136C119.811 47.2348 119.265 47.3409 118.705 47.4318C118.144 47.5227 117.606 47.6061 117.091 47.6818C116.045 47.8485 115.152 48.1061 114.409 48.4545C113.682 48.803 113.121 49.2576 112.727 49.8182C112.348 50.3636 112.159 51.0152 112.159 51.7727C112.159 52.9242 112.568 53.803 113.386 54.4091C114.22 55.0152 115.273 55.3182 116.545 55.3182ZM151.886 42.0909V62H140.773V27.0909H151.341V33.5H151.727C152.5 31.3636 153.818 29.6894 155.682 28.4773C157.545 27.25 159.765 26.6364 162.341 26.6364C164.795 26.6364 166.924 27.1894 168.727 28.2955C170.545 29.3864 171.955 30.9167 172.955 32.8864C173.97 34.8409 174.47 37.1288 174.455 39.75V62H163.341V41.9318C163.356 39.9924 162.864 38.4773 161.864 37.3864C160.879 36.2955 159.508 35.75 157.75 35.75C156.583 35.75 155.553 36.0076 154.659 36.5227C153.78 37.0227 153.098 37.7424 152.614 38.6818C152.144 39.6212 151.902 40.7576 151.886 42.0909ZM194.085 62.5C191.509 62.5 189.169 61.8333 187.062 60.5C184.956 59.1667 183.275 57.1667 182.017 54.5C180.759 51.8333 180.131 48.5227 180.131 44.5682C180.131 40.4621 180.782 37.0833 182.085 34.4318C183.388 31.7803 185.093 29.8182 187.199 28.5455C189.32 27.2727 191.6 26.6364 194.04 26.6364C195.873 26.6364 197.441 26.9545 198.744 27.5909C200.047 28.2121 201.123 29.0152 201.972 30C202.82 30.9848 203.464 32.0076 203.903 33.0682H204.131V15.4545H215.244V62H204.244V56.3409H203.903C203.434 57.4167 202.767 58.4242 201.903 59.3636C201.04 60.303 199.956 61.0606 198.653 61.6364C197.366 62.2121 195.843 62.5 194.085 62.5ZM197.949 53.8409C199.297 53.8409 200.449 53.4621 201.403 52.7045C202.358 51.9318 203.093 50.8485 203.608 49.4545C204.123 48.0606 204.381 46.4242 204.381 44.5455C204.381 42.6364 204.123 40.9924 203.608 39.6136C203.108 38.2348 202.373 37.1742 201.403 36.4318C200.449 35.6894 199.297 35.3182 197.949 35.3182C196.57 35.3182 195.403 35.697 194.449 36.4545C193.494 37.2121 192.767 38.2803 192.267 39.6591C191.782 41.0379 191.54 42.6667 191.54 44.5455C191.54 46.4242 191.79 48.0606 192.29 49.4545C192.79 50.8485 193.509 51.9318 194.449 52.7045C195.403 53.4621 196.57 53.8409 197.949 53.8409ZM233.386 15.4545V62H222.273V15.4545H233.386Z" fill="white"/>
<line x1="5.16987" y1="56.8243" x2="27.1058" y2="18.8301" stroke="white" stroke-width="10" stroke-linecap="round"/>
<line x1="27.4869" y1="42.5029" x2="35.9548" y2="57.1699" stroke="white" stroke-width="10" stroke-linecap="round"/>
</svg>
