<svg width="172" height="48" viewBox="0 0 172 48" fill="none" xmlns="http://www.w3.org/2000/svg">
<path d="M11.6989 27.0909V47H0.585227V0.454544H11.3352V18.5H11.7216C12.5095 16.3485 13.7973 14.6667 15.5852 13.4545C17.3883 12.2424 19.5928 11.6364 22.1989 11.6364C24.6534 11.6364 26.7898 12.1818 28.608 13.2727C30.4261 14.3485 31.8352 15.8712 32.8352 17.8409C33.8504 19.8106 34.3504 22.1136 34.3352 24.75V47H23.2216V26.9318C23.2367 24.9924 22.7519 23.4773 21.767 22.3864C20.7822 21.2955 19.3958 20.75 17.608 20.75C16.4413 20.75 15.411 21.0076 14.517 21.5227C13.6383 22.0227 12.9489 22.7424 12.4489 23.6818C11.964 24.6212 11.714 25.7576 11.6989 27.0909ZM51.1136 47.5909C48.8864 47.5909 46.9091 47.2197 45.1818 46.4773C43.4697 45.7197 42.1136 44.5833 41.1136 43.0682C40.1288 41.5379 39.6364 39.6212 39.6364 37.3182C39.6364 35.3788 39.9773 33.7424 40.6591 32.4091C41.3409 31.0758 42.2803 29.9924 43.4773 29.1591C44.6742 28.3258 46.053 27.697 47.6136 27.2727C49.1742 26.8333 50.8409 26.5379 52.6136 26.3864C54.5985 26.2045 56.197 26.0152 57.4091 25.8182C58.6212 25.6061 59.5 25.3106 60.0455 24.9318C60.6061 24.5379 60.8864 23.9848 60.8864 23.2727V23.1591C60.8864 21.9924 60.4848 21.0909 59.6818 20.4545C58.8788 19.8182 57.7955 19.5 56.4318 19.5C54.9621 19.5 53.7803 19.8182 52.8864 20.4545C51.9924 21.0909 51.4242 21.9697 51.1818 23.0909L40.9318 22.7273C41.2348 20.6061 42.0152 18.7121 43.2727 17.0455C44.5455 15.3636 46.2879 14.0455 48.5 13.0909C50.7273 12.1212 53.4015 11.6364 56.5227 11.6364C58.75 11.6364 60.803 11.9015 62.6818 12.4318C64.5606 12.947 66.197 13.7045 67.5909 14.7045C68.9848 15.6894 70.0606 16.9015 70.8182 18.3409C71.5909 19.7803 71.9773 21.4242 71.9773 23.2727V47H61.5227V42.1364H61.25C60.6288 43.3182 59.8333 44.3182 58.8636 45.1364C57.9091 45.9545 56.7803 46.5682 55.4773 46.9773C54.1894 47.3864 52.7348 47.5909 51.1136 47.5909ZM54.5455 40.3182C55.7424 40.3182 56.8182 40.0758 57.7727 39.5909C58.7424 39.1061 59.5152 38.4394 60.0909 37.5909C60.6667 36.7273 60.9545 35.7273 60.9545 34.5909V31.2727C60.6364 31.4394 60.25 31.5909 59.7955 31.7273C59.3561 31.8636 58.8712 31.9924 58.3409 32.1136C57.8106 32.2348 57.2652 32.3409 56.7045 32.4318C56.1439 32.5227 55.6061 32.6061 55.0909 32.6818C54.0455 32.8485 53.1515 33.1061 52.4091 33.4545C51.6818 33.803 51.1212 34.2576 50.7273 34.8182C50.3485 35.3636 50.1591 36.0152 50.1591 36.7727C50.1591 37.9242 50.5682 38.803 51.3864 39.4091C52.2197 40.0152 53.2727 40.3182 54.5455 40.3182ZM89.8864 27.0909V47H78.7727V12.0909H89.3409V18.5H89.7273C90.5 16.3636 91.8182 14.6894 93.6818 13.4773C95.5455 12.25 97.7652 11.6364 100.341 11.6364C102.795 11.6364 104.924 12.1894 106.727 13.2955C108.545 14.3864 109.955 15.9167 110.955 17.8864C111.97 19.8409 112.47 22.1288 112.455 24.75V47H101.341V26.9318C101.356 24.9924 100.864 23.4773 99.8636 22.3864C98.8788 21.2955 97.5076 20.75 95.75 20.75C94.5833 20.75 93.553 21.0076 92.6591 21.5227C91.7803 22.0227 91.0985 22.7424 90.6136 23.6818C90.1439 24.6212 89.9015 25.7576 89.8864 27.0909ZM132.085 47.5C129.509 47.5 127.169 46.8333 125.062 45.5C122.956 44.1667 121.275 42.1667 120.017 39.5C118.759 36.8333 118.131 33.5227 118.131 29.5682C118.131 25.4621 118.782 22.0833 120.085 19.4318C121.388 16.7803 123.093 14.8182 125.199 13.5455C127.32 12.2727 129.6 11.6364 132.04 11.6364C133.873 11.6364 135.441 11.9545 136.744 12.5909C138.047 13.2121 139.123 14.0152 139.972 15C140.82 15.9848 141.464 17.0076 141.903 18.0682H142.131V0.454544H153.244V47H142.244V41.3409H141.903C141.434 42.4167 140.767 43.4242 139.903 44.3636C139.04 45.303 137.956 46.0606 136.653 46.6364C135.366 47.2121 133.843 47.5 132.085 47.5ZM135.949 38.8409C137.297 38.8409 138.449 38.4621 139.403 37.7045C140.358 36.9318 141.093 35.8485 141.608 34.4545C142.123 33.0606 142.381 31.4242 142.381 29.5455C142.381 27.6364 142.123 25.9924 141.608 24.6136C141.108 23.2348 140.373 22.1742 139.403 21.4318C138.449 20.6894 137.297 20.3182 135.949 20.3182C134.57 20.3182 133.403 20.697 132.449 21.4545C131.494 22.2121 130.767 23.2803 130.267 24.6591C129.782 26.0379 129.54 27.6667 129.54 29.5455C129.54 31.4242 129.79 33.0606 130.29 34.4545C130.79 35.8485 131.509 36.9318 132.449 37.7045C133.403 38.4621 134.57 38.8409 135.949 38.8409ZM171.386 0.454544V47H160.273V0.454544H171.386Z" fill="white"/>
</svg>
